# xmcd
#
# Track frame offsets:
#	150
#	16758
#	28421
#	37480
#	47396
#	59992
#	74573
#	86674
#	97514
#	107908
#	125147
#	135041
#	152313
#	165543
#	180143
#	196265
#	207789
#	219044
#	232302
#	247482
#	258416
#	272565
#	283152
#	296212
#	304294
#
# Disc length: 4195 seconds
#
# Revision: 0
# Processed by: cddbd v1.4PL0 Copyright (c) Steve Scherf et al.
# Submitted via: EasyCDDAExtractor 4.6.9.1
#
DISCID=75106119
DTITLE=Artiste Varies - 50 Des Plus Grandes Chansons Country CD1
DYEAR=1900
DGENRE=Country
TTITLE0=Andre Hebert - Des Roses Rouges Pour Toi Maman
TTITLE1=Gaetan Richard - Du Mariage Au Divorce
TTITLE2=Marie King - La Priere D'un Vieillard
TTITLE3=Chantal and Sylvain - Nous Ne Sommes Pas Faits L'un Pour L'autre
TTITLE4=Aldei Duguay - L'homme En Noir
TTITLE5=Simeon Roy - Le Drame D'un Ivrogne
TTITLE6=Regis Gagne - Comment Peut-On Oublier?
TTITLE7=S. Oube and J. Robichaud - Pour Le Meilleur Pour Le Pire
TTITLE8=Ed. Castonguay - L'homage Au Pecheurs
TTITLE9=Andre Hebert - Serment D'amour
TTITLE10=Michel Malancon - Donne-Moi Un Whisky
TTITLE11=Luc Daraiche - Un Jour A LA Fois
TTITLE12=Marcel Martel - Mon Coeur Est Comme Un Train
TTITLE13=Ginette and Raymond Lavoie - Votre Mariage
TTITLE14=Claude Patry - Mon Ami Bobby MC Gee
TTITLE15=H. Lavoie and M. Denis - Un Mur Entre Nos Coeurs
TTITLE16=Claude Party - Et Si Moi Je N'veux Pas
TTITLE17=Johnny Farago - J'ai Ta Photo Dans Ma Chambre
TTITLE18=Andre Guitar - On N'as Pas Le Droit
TTITLE19=Garry King - Les Femmes Et La Boisson
TTITLE20=Linda Raymond - Quatre Murs
TTITLE21=Diane and Andre Guitar - On Est Fait L'un Pour L'autre
TTITLE22=Aldei Duguay - Un Amour Interdit
TTITLE23=Eddy Bizier - On M'appelle Playboy
TTITLE24=Willie Lamothe - Oh! Ma Cherie
EXTD=
EXTT0=
EXTT1=
EXTT2=
EXTT3=
EXTT4=
EXTT5=
EXTT6=
EXTT7=
EXTT8=
EXTT9=
EXTT10=
EXTT11=
EXTT12=
EXTT13=
EXTT14=
EXTT15=
EXTT16=
EXTT17=
EXTT18=
EXTT19=
EXTT20=
EXTT21=
EXTT22=
EXTT23=
EXTT24=
PLAYORDER=
